<?xml version="1.0" standalone="no"?>
<!DOCTYPE svg PUBLIC "-//W3C//DTD SVG 20010904//EN"
 "http://www.w3.org/TR/2001/REC-SVG-20010904/DTD/svg10.dtd">
<svg version="1.0" xmlns="http://www.w3.org/2000/svg"
 width="600.000000pt" height="600.000000pt" viewBox="0 0 600.000000 600.000000"
 preserveAspectRatio="xMidYMid meet">

<g transform="translate(0.000000,600.000000) scale(0.100000,-0.100000)"
fill="#000000" stroke="none">
<path d="M2460 5986 c0 -7 -7 -19 -15 -26 -19 -16 -19 -51 0 -76 19 -24 19
-74 0 -98 -19 -25 -19 -60 0 -76 19 -16 19 -69 0 -94 -19 -25 -19 -60 0 -76
19 -16 19 -69 0 -94 -8 -11 -15 -29 -15 -41 0 -12 7 -30 15 -41 19 -25 19 -78
0 -94 -19 -16 -19 -51 0 -76 19 -24 19 -74 0 -98 -19 -25 -19 -60 0 -76 19
-16 19 -69 0 -94 -19 -25 -19 -60 0 -76 19 -16 19 -69 0 -94 -8 -11 -15 -29
-15 -41 0 -12 7 -30 15 -41 19 -25 19 -78 0 -94 -19 -16 -19 -51 0 -76 19 -24
19 -74 0 -98 -19 -25 -19 -60 0 -76 19 -16 19 -69 0 -94 -19 -25 -19 -60 0
-76 19 -16 19 -69 0 -94 -19 -25 -19 -57 0 -82 8 -10 15 -31 15 -46 0 -21 -8
-31 -35 -44 -50 -23 -78 -67 -83 -130 -6 -73 24 -136 78 -161 l39 -18 1 -67
c0 -61 -2 -69 -25 -84 -25 -16 -87 -133 -116 -217 -9 -24 -55 -82 -129 -160
-287 -305 -477 -556 -575 -762 -83 -173 -95 -260 -71 -490 29 -278 123 -788
242 -1324 30 -134 54 -247 54 -252 0 -5 -6 -9 -12 -9 -13 0 -95 -206 -86 -215
3 -3 331 -4 730 -3 l725 3 -40 108 c-26 69 -45 107 -55 107 -10 0 -13 7 -10
23 3 12 26 114 51 227 159 708 257 1288 257 1510 0 97 -21 183 -70 287 -105
224 -274 453 -570 773 -95 101 -131 147 -144 185 -33 87 -84 182 -111 203 -22
18 -25 27 -25 89 0 68 0 68 36 88 102 55 99 238 -4 285 -32 14 -33 17 -27 60
3 25 6 60 5 78 -2 105 -1 131 5 163 4 23 3 39 -4 43 -14 9 -15 93 -1 101 6 3
10 19 10 35 0 16 -4 32 -10 35 -14 8 -13 92 1 101 7 4 8 20 4 43 -4 20 -6 57
-6 84 0 26 1 63 1 82 0 19 -1 56 -1 83 0 26 2 63 6 83 4 23 3 39 -4 43 -14 9
-15 93 -1 101 6 3 10 19 10 35 0 16 -4 32 -10 35 -14 8 -13 92 1 101 7 4 8 20
4 43 -4 20 -6 57 -6 84 0 26 1 63 1 82 0 19 -1 56 -1 83 0 26 2 63 6 83 4 23
3 39 -4 43 -14 9 -15 93 -1 101 6 3 10 19 10 35 0 16 -4 32 -10 35 -5 3 -10
26 -10 50 0 24 5 47 10 50 13 8 13 41 -2 82 -12 33 -28 44 -28 19z m82 -2157
c45 -60 27 -163 -33 -194 -40 -21 -63 -19 -98 10 -72 61 -60 185 22 220 39 16
81 2 109 -36z m-213 -770 c-18 -35 -61 -129 -95 -209 l-63 -145 -51 -3 c-33
-2 -50 1 -50 9 0 24 277 426 286 416 3 -3 -9 -34 -27 -68z m338 -54 c76 -109
193 -291 193 -300 0 -3 -22 -5 -48 -5 l-49 0 -28 68 c-16 37 -59 135 -97 217
-38 83 -62 143 -54 135 7 -8 45 -60 83 -115z m-285 13 c-13 -57 -34 -150 -46
-208 l-22 -105 -43 -3 c-73 -5 -75 -2 -37 86 74 174 152 332 162 332 7 0 2
-36 -14 -102z m68 -108 l0 -210 -55 0 c-30 0 -55 4 -55 8 0 4 9 50 20 102 43
199 72 310 81 310 5 0 9 -90 9 -210z m59 173 c18 -68 81 -355 81 -369 0 -10
-14 -14 -55 -14 l-55 0 0 210 c0 207 8 253 29 173z m104 -105 c67 -148 117
-263 117 -273 0 -3 -25 -5 -55 -5 -49 0 -55 3 -60 23 -2 12 -21 96 -41 187
-20 91 -39 175 -42 188 -2 12 0 22 6 22 5 0 39 -64 75 -142z m283 -152 c52
-60 94 -113 94 -117 0 -5 -20 -9 -45 -9 l-44 0 -128 193 c-70 105 -132 199
-136 207 -13 24 157 -155 259 -274z m-612 262 c-5 -7 -36 -52 -70 -100 -34
-49 -90 -133 -124 -188 l-62 -100 -44 0 c-24 0 -44 3 -44 8 0 14 336 392 348
392 2 0 0 -6 -4 -12z m-274 -412 c0 -2 -29 -59 -64 -127 -83 -158 -130 -278
-158 -395 l-23 -94 -92 0 c-50 0 -94 3 -96 8 -8 12 38 143 78 222 46 92 107
187 192 303 l65 87 49 0 c27 0 49 -2 49 -4z m145 -13 c-61 -159 -120 -363
-144 -503 l-17 -95 -97 -3 -97 -3 0 32 c0 75 136 409 223 547 27 41 28 42 83
42 49 0 55 -2 49 -17z m146 12 c3 -2 -8 -77 -23 -167 -15 -90 -32 -221 -39
-293 -6 -71 -13 -136 -15 -143 -3 -9 -28 -12 -101 -10 l-98 3 3 40 c9 103 70
333 133 497 l30 78 53 0 c29 0 55 -2 57 -5z m149 -305 l0 -310 -101 0 -102 0
7 83 c14 162 67 503 83 530 2 4 29 7 59 7 l54 0 0 -310z m150 286 c21 -55 80
-470 80 -561 l0 -35 -100 0 -100 0 0 310 0 310 55 0 c49 0 56 -3 65 -24z m153
-9 c42 -99 42 -100 9 -135 -16 -17 -38 -32 -49 -32 -15 0 -14 -3 7 -20 23 -17
25 -25 25 -97 0 -72 3 -84 35 -137 24 -41 50 -69 83 -89 36 -23 47 -36 45 -51
-3 -19 -11 -21 -100 -24 -114 -3 -100 -23 -117 168 -6 69 -22 190 -36 270 -33
195 -36 180 30 180 52 0 55 -1 68 -33z m177 -56 c93 -164 203 -421 187 -438
-6 -5 -10 1 -78 117 -24 41 -62 95 -85 120 -23 25 -49 60 -58 78 -10 19 -29
41 -44 49 -19 11 -35 36 -53 84 -15 38 -24 71 -21 74 3 3 27 5 53 5 l47 0 52
-89z m166 -13 c83 -113 162 -242 201 -328 36 -79 64 -173 54 -183 -4 -4 -48
-7 -97 -5 l-88 3 -9 45 c-22 122 -91 290 -186 460 -28 49 -51 94 -51 100 0 5
23 10 50 10 l50 0 76 -102z m25 -485 c13 -16 12 -17 -3 -4 -17 13 -22 21 -14
21 2 0 10 -8 17 -17z m-108 -10 l32 -18 -44 -3 c-24 -2 -51 0 -60 3 -14 6 -14
8 3 21 25 18 30 18 69 -3z m-1243 -147 c0 -106 22 -328 61 -624 31 -226 31
-233 13 -253 -15 -16 -28 -19 -78 -17 l-61 3 -22 110 c-60 299 -113 669 -113
792 l0 73 100 0 100 0 0 -84z m230 -23 c0 -58 7 -201 16 -317 l15 -210 -22
-51 c-13 -27 -42 -75 -66 -107 -27 -36 -41 -62 -37 -72 6 -14 11 -13 43 10 29
21 27 17 -14 -22 l-49 -49 -13 85 c-44 310 -83 672 -83 783 l0 57 105 0 105 0
0 -107z m230 -91 l0 -198 -44 -37 c-24 -20 -58 -61 -75 -91 -52 -90 -57 -89
-65 11 -19 253 -25 356 -26 431 l0 82 105 0 105 0 0 -198z m220 81 l0 -118
-53 3 c-57 4 -76 -8 -124 -73 l-22 -30 -1 168 0 167 100 0 100 0 0 -117z m230
-45 c0 -90 -7 -302 -15 -473 -8 -170 -15 -318 -15 -327 0 -16 -11 -18 -86 -18
l-85 0 3 312 3 311 34 21 c36 21 36 22 -21 40 -16 5 -18 21 -18 151 l0 145
100 0 100 0 0 -162z m174 150 c-5 -8 -2 -9 9 -5 10 4 24 10 32 13 13 5 15 -9
15 -91 0 -104 -21 -405 -48 -700 l-17 -180 -88 -3 -88 -3 5 58 c5 53 13 236
32 746 l6 177 75 0 c54 0 72 -3 67 -12z m276 -3 c9 -11 10 -42 5 -117 -9 -140
-41 -435 -71 -653 -13 -99 -24 -183 -24 -187 0 -5 -38 -8 -85 -8 -47 0 -85 3
-85 8 0 4 11 133 25 287 20 233 45 598 45 668 0 15 11 17 89 17 66 0 92 -4
101 -15z m235 -77 c-9 -133 -58 -472 -100 -689 -19 -103 -35 -189 -35 -193 0
-3 -38 -6 -85 -6 -83 0 -85 1 -80 23 12 52 75 585 86 730 11 146 13 156 29
142 25 -23 32 -18 25 16 -7 29 -6 31 16 24 l24 -7 -24 26 -24 26 87 0 88 0 -7
-92z m-915 -212 c0 -2 -7 -9 -15 -16 -12 -10 -15 -10 -15 4 0 9 7 16 15 16 8
0 15 -2 15 -4z m0 -516 l0 -161 -67 3 c-59 3 -69 6 -78 26 -5 12 -13 22 -17
22 -5 0 -8 24 -8 53 0 51 1 53 43 79 24 15 61 52 83 82 21 30 40 55 42 56 1 0
2 -72 2 -160z m-198 -52 c4 -27 3 -29 -8 -14 -7 10 -10 24 -7 32 8 20 10 18
15 -18z m-32 -43 c19 -56 10 -65 -64 -65 -58 0 -64 2 -70 23 -13 49 -7 66 31
86 34 17 41 17 65 5 15 -8 31 -28 38 -49z m-160 -25 l0 -40 -60 0 c-57 0 -60
1 -48 20 9 14 84 57 106 60 1 0 2 -18 2 -40z m-290 -91 c0 -7 11 -8 32 -4 27
6 30 5 24 -11 -14 -37 -18 -74 -8 -74 6 0 22 14 36 30 31 37 20 81 86 -335 29
-176 54 -332 57 -347 5 -28 5 -28 -51 -28 -49 0 -58 3 -66 22 -16 38 -160 703
-160 739 0 14 7 19 25 19 14 0 25 -5 25 -11z m304 -46 c4 -32 22 -202 41 -378
19 -176 35 -325 35 -333 0 -10 -16 -12 -62 -10 l-62 3 -13 75 c-44 253 -111
686 -107 692 3 5 40 8 84 8 l78 0 6 -57z m186 54 c2 -16 40 -713 40 -739 l0
-38 -60 0 c-54 0 -60 2 -65 23 -3 12 -19 150 -35 307 -17 157 -34 319 -39 360
-5 41 -6 78 -4 82 3 6 162 10 163 5z m190 -387 l0 -390 -59 0 -60 0 -5 43 c-7
54 -36 604 -36 680 l0 57 80 0 80 0 0 -390z m193 335 c-9 -213 -35 -702 -38
-712 -3 -9 -25 -13 -65 -13 l-60 0 0 390 0 391 83 -3 82 -3 -2 -50z m191 46
c5 -7 -50 -553 -72 -711 l-7 -55 -64 -3 -64 -3 7 103 c3 57 13 229 22 382 8
153 17 283 20 288 7 11 151 11 158 -1z m196 0 c0 -34 -118 -750 -126 -763 -3
-4 -32 -8 -65 -8 l-60 0 5 38 c3 20 21 190 41 377 20 187 38 346 40 353 5 14
165 18 165 3z m166 3 l21 -6 -23 -111 c-26 -129 -132 -613 -140 -639 -4 -14
-17 -18 -59 -18 -30 0 -56 3 -58 8 -2 4 8 81 24 172 15 91 42 257 59 370 17
113 33 211 35 218 5 12 100 17 141 6z"/>
</g>
</svg>
